<?xml version="1.0" encoding="utf-8"?>
<!-- Generator: Adobe Illustrator 21.0.1, SVG Export Plug-In . SVG Version: 6.00 Build 0)  -->
<svg version="1.1" id="Layer_1" xmlns="http://www.w3.org/2000/svg" xmlns:xlink="http://www.w3.org/1999/xlink" x="0px" y="0px"
	 viewBox="0 0 750.4 377.4" style="enable-background:new 0 0 750.4 377.4;" xml:space="preserve">
<style type="text/css">
	.st0{display:none;}
	.st1{display:inline;fill:none;}
	.st2{display:inline;fill:#FFFFFF;stroke:#FFFFFF;stroke-width:0.963;stroke-miterlimit:10;}
	.st3{display:inline;fill:none;stroke:#32619E;stroke-miterlimit:10;}
	.st4{display:inline;fill:none;stroke:#000000;stroke-width:0.3792;stroke-miterlimit:10;}
	.st5{fill:#FFFFFF;}
	.st6{enable-background:new    ;}
</style>
<g id="Layer_1_1_" class="st0">
	
		<image style="display:inline;overflow:visible;enable-background:new    ;" width="216" height="144" xlink:href="81401F26.jpeg"  transform="matrix(3.7037 0 0 5.5556 -17.8376 -211.5273)">
	</image>
	<path class="st1" d="M163.1,36.6"/>
	<rect x="619.8" y="253" class="st2" width="154" height="71"/>
	<rect x="-7.1" y="-0.1" class="st2" width="772.5" height="469.7"/>
	<path class="st3" d="M221.7,122.2"/>
</g>
<g id="Layer_2">
</g>
<g id="Layer_5">
</g>
<g id="Layer_6">
</g>
<g id="Layer_7">
</g>
<g id="Layer_8" class="st0">
	<circle class="st4" cx="217.3" cy="202.1" r="45.2"/>
</g>
<g id="Layer_9">
</g>
<g id="Layer_10">
	<g>
		<ellipse class="st5" cx="217.3" cy="202.1" rx="18" ry="18.1"/>
		<path class="st5" d="M348.9,377.4c0,0-16.8-1.5-34.8-6.8c-20.4-6-46.7-17.8-63.9-28.9c-25.5-16.4-45.5-34-63-50.9
			c-28-29.6-36-45.7-36-45.7l29.5-16.6l73.8-0.6l29.6,17c0,0-3.3,9.3-2.8,22.2c0.2,5,0.9,14,5.5,29.8c1,3.5,2.3,7,3.9,10.3
			c0.1,0.2,0.2,0.4,0.3,0.6c2,4.2,4.2,8.3,6.5,12.4c7,12.4,14.7,23.7,19,28.5c4.6,5.2,9,9.6,12.9,13.3
			C341.1,372.9,348.9,377.4,348.9,377.4z"/>
		<path class="st5" d="M304.2,0c0,0,7.1,15.3,11.5,33.5c5,20.7,7.9,49.3,6.8,69.8c-1.5,30.2-6.8,56.4-12.7,80
			c-11.7,39-21.7,54-21.7,54l-29.4-17.4l-37.1-62.8v-34.8c0,0,9.7-1.8,20.7-8.6c4.2-2.6,11.7-7.8,23.1-19.7c2.6-2.7,4.9-5.5,7-8.6
			c0.1-0.2,0.2-0.3,0.4-0.5c2.6-3.8,5.1-7.8,7.5-11.8c7.3-12.3,13.2-24.6,15.2-30.6c2.2-6.6,3.8-12.6,5-17.8
			C304.2,8.9,304.2,0,304.2,0z"/>
		<path class="st5" d="M0,226.2c0,0,9.8-13.7,23.4-26.6C38.9,185,62.3,168.3,80.7,159c27-13.7,52.3-22.1,75.7-28.7
			c39.7-9.2,57.6-8,57.6-8l-0.6,34.7L176,220.6l-28.9,16.6c0,0-6.4-7.5-17.7-13.7c-4.4-2.4-12.5-6.3-28.5-10.3
			c-3.6-0.9-7.2-1.5-10.9-1.8c-0.2,0-0.4,0-0.6-0.1c-4.6-0.4-9.3-0.6-14-0.6c-14.3-0.2-27.9,0.7-34.1,2c-6.8,1.4-12.8,2.9-18,4.5
			C7.8,221.8,0,226.2,0,226.2z"/>
		<g id="XMLID_1_" class="st6">
			<path class="st5" d="M437.8,207.9c0,6.1-1.2,11.5-3.7,16.2c-2.5,4.7-5.8,8.6-9.9,11.6c-4.9,3.6-10.2,6.2-15.8,7.7
				c-5.6,1.5-12.9,2.3-21.8,2.3h-37.5V122.5h34.7c9.3,0,16.3,0.3,20.9,0.9c4.7,0.6,9.1,1.9,13.4,4.1c4.7,2.4,8.1,5.5,10.3,9.3
				c2.2,3.8,3.2,8.4,3.2,13.5c0,5.8-1.6,11-4.9,15.6c-3.2,4.6-7.7,8.2-13.5,10.8v0.7c7.8,2,13.8,5.6,18.1,10.9
				C435.7,193.5,437.8,200,437.8,207.9z M413.6,152.6c0-3-0.5-5.6-1.6-7.7c-1.1-2.2-2.8-3.9-5.1-5.2c-2.8-1.5-5.9-2.4-9.4-2.7
				c-3.5-0.3-8.2-0.5-14.3-0.5h-16.7v36.1h19.8c5.4,0,9.5-0.3,12-0.8c2.6-0.5,5.2-1.6,8-3.3c2.6-1.6,4.5-3.7,5.6-6.3
				C413,159.6,413.6,156.4,413.6,152.6z M419.7,208.6c0-4.6-0.7-8.5-2.1-11.5c-1.4-3-4.2-5.6-8.5-7.7c-2.8-1.4-5.8-2.3-9-2.6
				c-3.2-0.4-7.9-0.6-13.8-0.6h-19.8v45.5h14.1c7.6,0,13.6-0.3,18-1s8.3-2.1,11.6-4.2c3.3-2.2,5.7-4.6,7.2-7.3
				C419,216.5,419.7,213,419.7,208.6z"/>
			<path class="st5" d="M455.1,245.8V122.5h81.8v14.6h-64.4v33.8h60v14.6h-60v45.8h64.4v14.6H455.1z"/>
			<path class="st5" d="M592.5,248c-9.5,0-17.5-0.9-24.2-2.8c-6.6-1.8-12.9-4.1-18.8-6.8v-20.5h1.2c5.7,5.1,12.2,9,19.5,11.8
				c7.3,2.8,14.3,4.2,21,4.2c9.6,0,16.9-1.9,21.8-5.7c4.9-3.8,7.4-8.8,7.4-14.9c0-4.9-1.3-8.9-3.9-12c-2.6-3.1-6.7-5.4-12.3-6.9
				c-4-1.1-7.7-2-11.1-2.7c-3.3-0.7-7.5-1.7-12.6-2.9c-4.5-1.1-8.5-2.5-12.1-4.2c-3.6-1.7-6.7-3.9-9.5-6.7c-2.7-2.7-4.8-5.9-6.3-9.6
				c-1.5-3.7-2.2-7.9-2.2-12.7c0-10,4.1-18.4,12.4-25.1c8.3-6.8,18.8-10.1,31.6-10.1c7.3,0,14.2,0.7,20.8,2.1
				c6.5,1.4,12.6,3.3,18.1,5.9v19.6h-1.3c-4.2-3.6-9.5-6.7-16-9.4c-6.5-2.7-13.3-4-20.5-4c-8.1,0-14.6,1.8-19.6,5.3s-7.5,8.2-7.5,14
				c0,5.2,1.5,9.4,4.4,12.5c2.9,3.1,7.2,5.4,12.7,6.8c3.7,0.9,8.2,2,13.5,3.2c5.3,1.2,9.7,2.3,13.3,3.3c9,2.6,15.6,6.5,19.8,11.8
				c4.2,5.2,6.2,11.7,6.2,19.4c0,4.8-1,9.6-3.1,14.2c-2.1,4.7-5,8.7-8.7,11.9c-4.2,3.6-9,6.3-14.3,8.3
				C607.1,247,600.4,248,592.5,248z"/>
			<path class="st5" d="M686.8,245.8V137.1h-43.9v-14.6h105.2v14.6h-43.9v108.7H686.8z"/>
		</g>
		<g class="st6">
			<path class="st5" d="M671.1,295.7h-6.3l-13.4-15.3l-2.1,2.2v13.1h-4.9v-32.8h4.9V278l15-15.1h5.9l-15.1,14.7L671.1,295.7z"/>
			<path class="st5" d="M699.6,262.9l-12.4,18.3v14.5h-4.9v-14.1L670,262.9h5.4l9.4,14.5l9.6-14.5H699.6z"/>
			<path class="st5" d="M715.8,295.7h-14.2v-3.3h4.7v-26.1h-4.7v-3.3h14.2v3.3h-4.7v26.1h4.7V295.7z"/>
			<path class="st5" d="M748.3,262.9l-12.6,32.8h-5.3l-12.6-32.8h5.2l10.1,27.2l10.1-27.2H748.3z"/>
		</g>
	</g>
</g>
</svg>
